PathFileType	4	(X/Y/Z)	C:/Users/beibeiliu/ov580/test_trc/User2\sequence.36_training_dense_left.trc
DataRate	CameraRate	NumFrames	NumMarkers	Units	OrigDataRate	OrigDataStartFrame	OrigNumFrames
120	120	21	19	mm	120	313	500
Frame#	Time	ThumbCMC			ThumbMCP			ThumbIP			ThumbTip			IndexMCP			IndexPIP			IndexTip			MiddleMCP			MiddlePIP			MiddleTip			RingMCP			RingPIP			RingTip			PinkyMCP			PinkyPIP			PinkyTip			BackHand1			BackHand2			BackHand3	
		X0	Y0	Z0	X1	Y1	Z1	X2	Y2	Z2	X3	Y3	Z3	X4	Y4	Z4	X5	Y5	Z5	X6	Y6	Z6	X7	Y7	Z7	X8	Y8	Z8	X9	Y9	Z9	X10	Y10	Z10	X11	Y11	Z11	X12	Y12	Z12	X13	Y13	Z13	X14	Y14	Z14	X15	Y15	Z15	X16	Y16	Z16	X17	Y17	Z17	X18	Y18	Z18	
312	2.6	-226.057	-18.4422	74.0675	-213.176	4.05665	52.6172	-186.988	17.171	33.9212	-156.206	10.1338	30.2581	-184.342	-45.9941	7.74582	-169.151	-41.139	-18.1277	-151.325	-36.3466	-40.2663	-154.253	-62.8018	19.5296	-131.729	-55.9468	-8.30759	-105.11	-49.0262	-26.9955	-138.223	-63.2719	31.1988	-121.952	-55.7607	12.2365	-102.444	-44.2594	-8.54155	-130.666	-63.8248	52.4592	-113.541	-57.7622	34.3808	-99.1907	-60.9027	19.24	-174.608	-74.2673	78.2434	-194.315	-76.6538	107.44	-212.406	-59.5035	75.95	
313	2.60833	-227.737	-17.6105	77.3877	-215.767	5.01177	54.797	-183.476	16.5842	30.9603	-156.101	12.1096	27.5693	-185.722	-45.1817	9.96884	-169.586	-43.1643	-14.9101	-153.495	-36.0813	-39.9576	-156.974	-60.917	15.6089	-128.485	-58.2676	-3.85493	-105.24	-49.1091	-26.0015	-138.104	-62.6805	29.7378	-116.854	-56.5544	14.3579	-100.12	-44.5895	-8.12928	-133.108	-63.0005	56.2775	-114.646	-59.0551	35.0399	-99.3958	-58.2631	17.0294	-177.598	-74.3882	75.1547	-195.992	-78.8379	106.277	-213.149	-59.7893	73.3895	
314	2.61667	-226.925	-19.7889	77.7344	-214.233	4.84652	52.8951	-188.397	19.1523	32.7418	-158.898	12.8165	30.8827	-184.919	-45.74	10.4864	-169.456	-42.1926	-16.0379	-154.172	-34.2543	-41.4122	-155.287	-61.7409	19.1173	-130.966	-57.2193	-4.40402	-106.219	-48.0247	-24.6097	-137.803	-64.7392	34.0547	-122.606	-55.1907	13.3871	-102.587	-45.2405	-6.28161	-133.224	-63.873	52.7828	-115.425	-59.8774	38.4849	-99.2073	-60.4547	18.4304	-174.116	-74.5755	76.4977	-194.691	-78.3192	107.013	-209.582	-61.6426	73.6175	
315	2.625	-227.194	-19.0859	76.8963	-215.228	5.74309	53.6257	-188.368	18.2642	34.7908	-156.019	11.2623	27.942	-183.063	-44.3773	4.54374	-171.825	-40.0994	-20.0242	-156.406	-32.7701	-42.5093	-153.741	-61.1015	13.7478	-130.454	-56.8554	-8.53112	-104.281	-48.5493	-24.248	-139.189	-63.631	31.2765	-118.883	-56.1258	11.7845	-99.386	-47.0334	-5.68139	-132.581	-64.0727	53.2051	-114.169	-59.2668	33.7169	-96.938	-58.2687	14.6879	-178.713	-72.9714	76.5021	-193.824	-78.8513	104.99	-211.214	-62.1173	73.9768	
316	2.63333	-224.699	-19.1644	76.3979	-213.663	3.98674	52.2726	-186.729	19.6764	29.3661	-160.308	13.3377	31.5482	-185.918	-44.0502	9.54804	-170.671	-41.177	-16.0873	-156.598	-30.6094	-44.4666	-156.497	-60.3897	14.6476	-129.974	-56.8218	-5.58237	-103.719	-46.7741	-26.7327	-136.189	-64.6373	30.5201	-118.852	-58.9583	12.8236	-98.2727	-49.2454	-4.71982	-128.34	-66.5059	52.578	-111.695	-60.7344	35.7717	-99.3517	-58.5009	16.4879	-178.712	-73.3683	77.8871	-197.263	-78.2025	104.281	-213.918	-60.6702	71.0886	
317	2.64167	-227.463	-17.1191	75.0597	-216.026	7.1605	54.3545	-187.882	21.0595	31.4858	-157.374	13.6014	28.3133	-182.392	-45.0004	6.79876	-170.788	-40.1581	-16.1401	-152.084	-31.8195	-42.2897	-155.839	-62.4515	18.2487	-134.209	-54.2945	-10.3048	-107.491	-47.9671	-24.783	-136.504	-64.9995	31.478	-121.662	-58.7473	12.2687	-98.9502	-49.1017	-7.08617	-131.023	-65.99	55.2798	-111.954	-61.218	34.8352	-96.5026	-61.3235	14.169	-177.838	-75.6997	79.0094	-195.934	-76.3871	104.834	-211.914	-58.9411	72.6555	
318	2.65	-227.081	-16.9122	75.7904	-216.317	7.59353	54.935	-187.091	20.7345	31.7734	-160.232	13.8872	30.5747	-183.759	-43.4526	5.6208	-174.866	-36.5468	-18.3796	-156.17	-31.2896	-40.0077	-157.051	-59.6244	11.1697	-132.905	-57.1001	-7.66963	-109.338	-46.3425	-28.488	-142.863	-64.6294	31.7217	-121.084	-60.3763	10.6188	-98.3895	-49.7728	-10.2474	-130.557	-66.4922	56.0875	-113.94	-60.738	34.6012	-97.7831	-60.8873	18.8631	-178.39	-74.2395	79.5514	-196.234	-75.9599	105.657	-214.333	-60.3459	74.2159	
319	2.65833	-224.926	-14.6011	74.6795	-215.601	10.9637	55.1597	-186.093	23.5532	31.8225	-159.588	14.7997	30.9969	-187.198	-40.0508	4.64957	-173.389	-36.4907	-16.0359	-153.646	-29.1425	-39.9875	-155.781	-61.6248	12.1502	-135.433	-55.0387	-13.2011	-112.604	-46.9247	-30.083	-142.482	-65.401	28.5056	-123.705	-61.0945	11.1176	-101.407	-52.7718	-9.71319	-134.239	-66.1032	53.2759	-111.893	-64.9876	37.7077	-96.0825	-64.5117	16.4323	-176.79	-72.9944	73.8255	-198.298	-75.6053	103.186	-213.008	-59.7597	73.5443	
320	2.66667	-223.03	-15.2834	80.1635	-210.957	10.8424	54.3949	-183.427	22.5362	34.0325	-155.579	13.3778	28.2724	-185.688	-40.5035	9.75533	-175.292	-33.6372	-17.6775	-156.819	-24.1748	-42.9733	-160.125	-59.6672	14.6384	-138.705	-53.9146	-14.1865	-111.639	-47.0234	-30.1205	-143.089	-67.0854	26.2496	-123.139	-64.6424	7.35859	-101.114	-54.41	-14.1633	-133.559	-69.9822	54.2642	-115.564	-66.1807	33.4001	-95.1666	-66.5445	14.2359	-177.792	-76.3092	74.6544	-198.661	-77.4788	102.309	-214.76	-56.0215	75.6005	
321	2.675	-219.665	-12.876	77.2979	-210.753	17.3669	57.5296	-182.944	26.699	36.8056	-152.828	17.4056	28.909	-183.58	-37.3332	5.77424	-175.887	-29.7789	-16.5819	-155.359	-23.3717	-42.8274	-162.834	-56.6573	8.96082	-141.878	-53.3014	-10.9732	-115.231	-43.6747	-32.4126	-149.256	-66.9616	26.9566	-128.264	-63.6792	4.54568	-106.813	-55.2117	-14.6721	-138.032	-69.1016	53.2219	-114.171	-69.0624	32.8764	-97.6437	-67.4761	12.5099	-181.227	-73.2682	75.0841	-202.569	-75.4497	101.657	-215.347	-55.1438	73.8386	
322	2.68333	-220.693	-9.31494	82.6183	-205.785	16.4287	57.1276	-179.14	28.3807	36.8553	-150.203	13.2135	31.4215	-183.393	-36.2578	4.86388	-173.022	-31.4982	-16.1817	-154.687	-24.2844	-38.4235	-165.17	-55.0982	8.94766	-141.241	-54.1929	-11.2102	-115.865	-41.4291	-35.3584	-147.17	-69.1478	27.8561	-129.222	-66.3379	6.33754	-109.616	-56.759	-12.9581	-137.144	-70.2858	49.0545	-114.026	-70.2922	31.7205	-102.39	-65.7985	13.1234	-184.183	-69.7565	74.9078	-200.419	-73.2061	101.533	-212.027	-52.5541	71.1512	
323	2.69167	-219.985	-7.35888	79.155	-205.739	16.867	60.3377	-177.946	25.1546	41.3631	-150.321	15.3197	33.3772	-185.303	-35.7671	6.68997	-176.885	-27.9798	-16.6623	-154.916	-21.8785	-41.7321	-164.348	-56.0821	10.5599	-142.404	-52.208	-14.2255	-114.32	-41.9412	-34.8981	-148.102	-68.5314	23.4915	-127.62	-68.7115	7.16905	-105.265	-59.5314	-13.7547	-137.754	-70.0706	49.6372	-117.609	-69.4166	30.0999	-100.873	-67.1405	9.85043	-182.964	-75.1759	77.6225	-199.173	-73.5151	100.191	-216.065	-49.354	71.0806	
324	2.7	-218.966	-8.05351	79.7609	-204.2	14.5652	61.0114	-175.837	25.0158	37.8627	-150.238	15.6983	33.1814	-185.241	-36.8449	8.82373	-172.359	-31.0244	-17.0313	-156.016	-22.7708	-39.9342	-163.982	-57.8664	13.4808	-140.148	-55.984	-10.1284	-114.518	-46.6047	-28.9778	-147.701	-67.2658	24.3703	-129.055	-66.958	7.07771	-103.777	-59.1898	-13.4696	-139.217	-69.5686	51.0622	-115.889	-68.6723	30.8021	-103.549	-63.1745	9.16859	-181.832	-75.8385	75.5713	-199.167	-75.2593	102.757	-214.982	-53.3323	74.532	
325	2.70833	-220.238	-8.18326	78.5753	-205.376	17.8125	57.1695	-175.023	23.6561	35.2596	-149.619	13.1232	32.6604	-185.121	-36.6616	9.18295	-172.899	-29.4893	-17.8778	-156.211	-23.3287	-39.3727	-161.118	-57.9004	11.0307	-138.067	-55.2271	-9.87123	-113.922	-44.0793	-30.21	-146.092	-69.3801	28.448	-123.217	-67.7491	6.42144	-104.855	-58.5735	-12.4573	-137.586	-69.6829	49.8645	-116.494	-66.2126	28.6562	-101.708	-62.3246	9.83954	-181.985	-73.7382	73.3598	-197.097	-74.7145	100.178	-214.993	-50.2823	72.6759	
326	2.71667	-217.879	-10.8358	80.8811	-205.282	16.2165	57.1024	-178.501	23.8325	39.9375	-149.977	11.5953	32.3	-186.615	-37.1427	8.29319	-173.119	-30.2838	-21.1023	-157.443	-21.5435	-41.8437	-162.149	-57.6676	12.9855	-134.522	-54.8804	-10.6977	-115.058	-45.2369	-29.1039	-146.905	-67.7272	26.9273	-124.903	-65.7131	9.34905	-105.328	-56.7379	-12.0991	-135.088	-68.5739	47.3809	-114.727	-65.8516	30.4636	-104.056	-63.9652	11.8644	-180.423	-75.8744	73.6588	-199.617	-76.3795	99.826	-214.333	-53.3091	73.6049	
327	2.725	-218.694	-10.4381	80.7115	-207.086	17.3393	59.0299	-176.124	22.2657	37.5017	-151.116	13.1267	31.8815	-188.436	-37.4074	10.0923	-172.96	-32.3181	-17.3345	-158.656	-24.751	-38.6338	-161.245	-56.8331	11.218	-134.833	-54.0581	-9.29397	-111.534	-46.027	-27.461	-143.6	-67.3382	27.2659	-125.116	-65.4607	9.91156	-103.394	-57.1344	-12.3732	-136.795	-67.7607	48.5473	-116.859	-65.9333	34.801	-100.81	-61.6953	12.3676	-181.851	-74.3206	76.7934	-200.476	-74.4136	104.188	-214.641	-53.1536	74.1204	
328	2.73333	-221.67	-8.42902	79.2303	-206.005	14.1646	59.5745	-177.199	20.1518	36.8412	-152.561	11.9816	33.3863	-191.231	-35.6135	9.70246	-174.076	-31.9904	-19.7901	-159.077	-26.3354	-38.4837	-162.56	-57.1374	14.1179	-136.579	-54.8129	-5.69392	-112.116	-43.5319	-28.4609	-146.169	-65.8995	30.0541	-126.019	-63.6705	12.0848	-105.867	-54.6794	-10.0507	-135.199	-70.3736	53.4384	-116.72	-63.7832	33.0882	-101.11	-60.089	11.2373	-181.174	-75.3044	73.755	-199.281	-76.8098	101.605	-218.501	-52.5648	72.2817	
329	2.74167	-219.672	-11.6285	82.305	-205.844	13.879	56.8754	-178.222	22.8305	34.5614	-150.723	11.2423	30.6802	-188.429	-37.3818	6.0917	-176.629	-30.7968	-18.6381	-157.08	-28.018	-39.9905	-163.113	-56.8144	14.1139	-135.011	-54.402	-7.58061	-107.805	-45.4749	-28.1316	-144.374	-68.0709	30.6462	-123.268	-62.6206	8.41953	-104.329	-56.3145	-9.04894	-134.778	-67.822	48.8644	-119.669	-62.1088	31.7498	-102.632	-61.0053	15.076	-181.253	-76.2487	74.8018	-197.516	-75.7136	101.512	-215.238	-53.9761	74.8654	
330	2.75	-220.748	-8.77198	78.6501	-206.081	13.3991	58.0279	-177.397	19.1396	35.7885	-151.66	14.7697	29.0117	-189.849	-37.364	9.65884	-174.98	-35.1283	-17.5371	-162.686	-27.763	-39.9101	-159.996	-57.0809	12.4308	-135.433	-53.504	-8.91134	-108.154	-47.206	-25.3297	-147.342	-65.0097	29.3323	-125.15	-59.6661	6.73557	-107.008	-52.6873	-12.0369	-134.031	-69.4386	48.7347	-116.959	-61.7839	30.3864	-105.696	-58.7922	12.6376	-185.941	-73.027	75.2298	-200.758	-75.8897	101.46	-215.817	-52.8948	74.8059	
331	2.75833	-220.775	-11.0016	83.8148	-206.692	15.1393	55.1233	-181.101	24.2555	36.1364	-150.962	10.9088	27.8402	-189.227	-37.4522	6.10621	-175.533	-35.8408	-15.1745	-158.054	-30.969	-41.5924	-164.492	-55.9484	14.1676	-137.22	-53.5785	-6.86755	-109.011	-44.4167	-28.6395	-146.343	-63.9063	27.3869	-127.88	-60.7169	9.45211	-105.951	-53.9097	-8.70181	-138.58	-67.0445	50.7855	-117.037	-62.3498	31.2233	-103.638	-60.1047	11.13	-186.582	-70.9753	76.6444	-203.157	-73.7734	105.42	-217.939	-53.0451	76.2133	
332	2.76667	-220.051	-9.88177	79.5156	-207.648	13.8637	59.1345	-180.919	22.5245	36.671	-155.015	15.5051	28.5648	-190.566	-35.6973	9.36691	-175.022	-34.5014	-19.0745	-157.339	-31.8087	-40.6046	-160.668	-56.2686	11.8451	-140.49	-51.9751	-8.51231	-110.368	-46.8409	-24.6235	-144.334	-66.8305	29.5819	-124.626	-62.9994	10.0223	-107.574	-53.5056	-10.5407	-140.587	-66.3068	50.8618	-118.001	-62.1236	29.0415	-104.582	-60.5793	14.6189	-184.814	-72.1011	75.8366	-200.732	-77.431	102.789	-216.987	-53.6375	76.3472	
